<?xml version="1.0" encoding="UTF-8"?>
<svg version="1.1" xmlns="http://www.w3.org/2000/svg" width="32" height="32">
<path d="M0 0 C4.47348519 2.5539234 7.15667606 5.02802266 8.68359375 10.0859375 C9.62390593 16.44373005 8.96673735 21.20301666 5.15625 26.45703125 C1.60755325 30.38224755 -2.08641421 31.27322742 -7.19140625 31.5859375 C-12.60115102 31.40642862 -16.31739909 29.70134685 -20.31640625 26.0859375 C-23.45999639 21.86173825 -23.90106543 17.76225747 -23.73046875 12.62109375 C-22.82928048 7.10344107 -20.04634805 3.37333605 -15.62890625 0.0859375 C-10.30522099 -1.52121277 -5.27319521 -2.08082239 0 0 Z " fill="#40C29F" transform="translate(23.31640625,0.9140625)"/>
<path d="M0 0 C5.94 0 11.88 0 18 0 C17.67 4.29 17.34 8.58 17 13 C11.72 13 6.44 13 1 13 C0.67 8.71 0.34 4.42 0 0 Z " fill="#F2FBF8" transform="translate(7,11)"/>
<path d="M0 0 C5.28 0 10.56 0 16 0 C16 1.65 16 3.3 16 5 C10.72 5 5.44 5 0 5 C0 3.35 0 1.7 0 0 Z " fill="#FCFEFD" transform="translate(8,11)"/>
<path d="M0 0 C0.33 0 0.66 0 1 0 C1 1.65 1 3.3 1 5 C1.65226563 4.91621094 2.30453125 4.83242187 2.9765625 4.74609375 C7.88249144 4.17445896 12.13127185 3.84688018 17 5 C17 3.35 17 1.7 17 0 C17.33 0 17.66 0 18 0 C18 1.98 18 3.96 18 6 C12.11348036 8.17545291 7.16814749 8.16982107 1 7 C0 6 0 6 -0.0625 2.9375 C-0.041875 1.968125 -0.02125 0.99875 0 0 Z " fill="#ADE4D5" transform="translate(7,11)"/>
<path d="M0 0 C2.64 0 5.28 0 8 0 C8 0.66 8 1.32 8 2 C9.32 2.33 10.64 2.66 12 3 C6.72 3 1.44 3 -4 3 C-2.68 2.67 -1.36 2.34 0 2 C0 1.34 0 0.68 0 0 Z " fill="#91DBC7" transform="translate(12,8)"/>
</svg>
